<mxfile host="Electron" agent="Mozilla/5.0 (Windows NT 10.0; Win64; x64) AppleWebKit/537.36 (KHTML, like Gecko) draw.io/27.0.9 Chrome/134.0.6998.205 Electron/35.4.0 Safari/537.36" version="27.0.9">
  <diagram name="Page-1" id="RXRdDstBCiqFgb8EHEbK">
    <mxGraphModel dx="723" dy="523" grid="1" gridSize="10" guides="1" tooltips="1" connect="1" arrows="1" fold="1" page="1" pageScale="1" pageWidth="3300" pageHeight="2339" math="1" shadow="0">
      <root>
        <mxCell id="0" />
        <mxCell id="1" parent="0" />
        <mxCell id="Vi9ajJC3Tb-Wx5454nve-8" value="" style="shape=parallelogram;perimeter=parallelogramPerimeter;whiteSpace=wrap;html=1;fixedSize=1;fillColor=#f5f5f5;fontColor=#333333;strokeColor=none;size=60;" vertex="1" parent="1">
          <mxGeometry x="110" y="260" width="260" height="70" as="geometry" />
        </mxCell>
        <mxCell id="Vi9ajJC3Tb-Wx5454nve-6" value="\(\mathsf{I}\)" style="text;html=1;align=center;verticalAlign=middle;whiteSpace=wrap;rounded=0;" vertex="1" parent="1">
          <mxGeometry x="180" y="285" width="10" height="20" as="geometry" />
        </mxCell>
        <mxCell id="Vi9ajJC3Tb-Wx5454nve-10" value="Inertial Frame" style="text;html=1;align=center;verticalAlign=middle;whiteSpace=wrap;rounded=0;" vertex="1" parent="1">
          <mxGeometry x="155" y="305" width="60" height="30" as="geometry" />
        </mxCell>
        <mxCell id="Vi9ajJC3Tb-Wx5454nve-11" value="" style="group" vertex="1" connectable="0" parent="1">
          <mxGeometry x="190" y="238" width="46" height="78" as="geometry" />
        </mxCell>
        <mxCell id="Vi9ajJC3Tb-Wx5454nve-1" value="" style="endArrow=classic;html=1;rounded=0;" edge="1" parent="Vi9ajJC3Tb-Wx5454nve-11">
          <mxGeometry width="50" height="50" relative="1" as="geometry">
            <mxPoint y="52" as="sourcePoint" />
            <mxPoint x="46" y="26" as="targetPoint" />
          </mxGeometry>
        </mxCell>
        <mxCell id="Vi9ajJC3Tb-Wx5454nve-2" value="" style="endArrow=classic;html=1;rounded=0;" edge="1" parent="Vi9ajJC3Tb-Wx5454nve-11">
          <mxGeometry width="50" height="50" relative="1" as="geometry">
            <mxPoint y="52" as="sourcePoint" />
            <mxPoint as="targetPoint" />
          </mxGeometry>
        </mxCell>
        <mxCell id="Vi9ajJC3Tb-Wx5454nve-3" value="" style="endArrow=classic;html=1;rounded=0;" edge="1" parent="Vi9ajJC3Tb-Wx5454nve-11">
          <mxGeometry width="50" height="50" relative="1" as="geometry">
            <mxPoint y="52" as="sourcePoint" />
            <mxPoint x="46" y="78" as="targetPoint" />
          </mxGeometry>
        </mxCell>
        <mxCell id="Vi9ajJC3Tb-Wx5454nve-12" value="" style="group" vertex="1" connectable="0" parent="1">
          <mxGeometry x="310" y="130" width="46" height="78" as="geometry" />
        </mxCell>
        <mxCell id="Vi9ajJC3Tb-Wx5454nve-13" value="" style="endArrow=classic;html=1;rounded=0;" edge="1" parent="Vi9ajJC3Tb-Wx5454nve-12">
          <mxGeometry width="50" height="50" relative="1" as="geometry">
            <mxPoint y="52" as="sourcePoint" />
            <mxPoint x="46" y="26" as="targetPoint" />
          </mxGeometry>
        </mxCell>
        <mxCell id="Vi9ajJC3Tb-Wx5454nve-14" value="" style="endArrow=classic;html=1;rounded=0;" edge="1" parent="Vi9ajJC3Tb-Wx5454nve-12">
          <mxGeometry width="50" height="50" relative="1" as="geometry">
            <mxPoint y="52" as="sourcePoint" />
            <mxPoint as="targetPoint" />
          </mxGeometry>
        </mxCell>
        <mxCell id="Vi9ajJC3Tb-Wx5454nve-15" value="" style="endArrow=classic;html=1;rounded=0;" edge="1" parent="Vi9ajJC3Tb-Wx5454nve-12">
          <mxGeometry width="50" height="50" relative="1" as="geometry">
            <mxPoint y="52" as="sourcePoint" />
            <mxPoint x="46" y="78" as="targetPoint" />
          </mxGeometry>
        </mxCell>
        <mxCell id="Vi9ajJC3Tb-Wx5454nve-16" value="" style="endArrow=none;dashed=1;html=1;rounded=0;entryX=0.5;entryY=0;entryDx=0;entryDy=0;" edge="1" parent="1" target="Vi9ajJC3Tb-Wx5454nve-17">
          <mxGeometry width="50" height="50" relative="1" as="geometry">
            <mxPoint x="190" y="290" as="sourcePoint" />
            <mxPoint x="280" y="180" as="targetPoint" />
          </mxGeometry>
        </mxCell>
        <mxCell id="Vi9ajJC3Tb-Wx5454nve-17" value="\(\mathsf{B}\)" style="text;html=1;align=center;verticalAlign=middle;whiteSpace=wrap;rounded=0;" vertex="1" parent="1">
          <mxGeometry x="305" y="180" width="10" height="20" as="geometry" />
        </mxCell>
        <mxCell id="Vi9ajJC3Tb-Wx5454nve-18" value="Body Frame" style="text;html=1;align=center;verticalAlign=middle;whiteSpace=wrap;rounded=0;" vertex="1" parent="1">
          <mxGeometry x="280" y="200" width="60" height="30" as="geometry" />
        </mxCell>
        <mxCell id="Vi9ajJC3Tb-Wx5454nve-19" value="\(e_1\)" style="text;html=1;align=center;verticalAlign=middle;whiteSpace=wrap;rounded=0;" vertex="1" parent="1">
          <mxGeometry x="182" y="222" width="18" height="18" as="geometry" />
        </mxCell>
        <mxCell id="Vi9ajJC3Tb-Wx5454nve-20" value="\(e_2\)" style="text;html=1;align=center;verticalAlign=middle;whiteSpace=wrap;rounded=0;" vertex="1" parent="1">
          <mxGeometry x="236" y="302" width="14" height="28" as="geometry" />
        </mxCell>
        <mxCell id="Vi9ajJC3Tb-Wx5454nve-21" value="\(e_3\)" style="text;html=1;align=center;verticalAlign=middle;whiteSpace=wrap;rounded=0;" vertex="1" parent="1">
          <mxGeometry x="236" y="248" width="14" height="22" as="geometry" />
        </mxCell>
        <mxCell id="Vi9ajJC3Tb-Wx5454nve-22" value="fixed" style="text;html=1;align=center;verticalAlign=middle;whiteSpace=wrap;rounded=0;fontStyle=2;fontSize=10;" vertex="1" parent="1">
          <mxGeometry x="157.5" y="330" width="55" height="20" as="geometry" />
        </mxCell>
        <mxCell id="Vi9ajJC3Tb-Wx5454nve-23" value="position vector" style="text;html=1;align=center;verticalAlign=middle;whiteSpace=wrap;rounded=0;rotation=-42.5;" vertex="1" parent="1">
          <mxGeometry x="215" y="210" width="82" height="10" as="geometry" />
        </mxCell>
      </root>
    </mxGraphModel>
  </diagram>
</mxfile>
